<svg width="45" height="45" viewBox="0 0 45 45" fill="none" xmlns="http://www.w3.org/2000/svg">
<path d="M41.9524 44.1373C36.7404 44.1373 31.6601 42.9753 26.7116 40.6513C21.7614 38.329 17.3777 35.2584 13.5604 31.4395C9.74151 27.6222 6.67089 23.2385 4.34852 18.2883C2.02454 13.3397 0.862549 8.25945 0.862549 3.04746C0.862549 2.32021 1.10497 1.71417 1.5898 1.22933C2.07464 0.744493 2.68068 0.502075 3.40794 0.502075H13.2259C13.7915 0.502075 14.2965 0.683888 14.741 1.04752C15.1854 1.41114 15.448 1.87578 15.5288 2.44142L17.1046 10.9261C17.1854 11.4917 17.1757 12.0064 17.0755 12.4703C16.9736 12.9357 16.7409 13.3502 16.3773 13.7139L10.5593 19.6531C12.2562 22.5621 14.3774 25.2893 16.9227 27.8347C19.4681 30.3801 22.2761 32.5821 25.3468 34.4406L31.0436 28.7438C31.4072 28.3801 31.8824 28.107 32.469 27.9244C33.054 27.7434 33.6294 27.6933 34.195 27.7741L42.5585 29.471C43.1241 29.5922 43.5887 29.8646 43.9524 30.288C44.316 30.713 44.4978 31.2084 44.4978 31.774V41.5919C44.4978 42.3192 44.2554 42.9252 43.7705 43.4101C43.2857 43.8949 42.6797 44.1373 41.9524 44.1373Z" fill="white"/>
</svg>
