<svg width="34" height="34" viewBox="0 0 34 34" fill="none" xmlns="http://www.w3.org/2000/svg">
<path d="M31.2512 18.1551L33.1098 7.96328C33.1422 7.78824 33.1344 7.60811 33.0868 7.43654C33.0393 7.26498 32.9534 7.10648 32.8355 6.97305C32.7229 6.83529 32.5812 6.72422 32.4205 6.64783C32.2598 6.57143 32.0842 6.53162 31.9062 6.53125H7.3332L6.58672 2.4332C6.4836 1.87371 6.18803 1.36791 5.75121 1.00343C5.31439 0.63895 4.76383 0.438744 4.19492 0.4375H1.4375C1.11427 0.4375 0.804273 0.565904 0.575714 0.794464C0.347154 1.02302 0.21875 1.33302 0.21875 1.65625C0.21875 1.97948 0.347154 2.28948 0.575714 2.51804C0.804273 2.7466 1.11427 2.875 1.4375 2.875H4.19492L8.36914 25.8789C7.774 26.4031 7.33678 27.0829 7.10659 27.8418C6.87641 28.6008 6.86237 29.4089 7.06605 30.1754C7.26973 30.9419 7.68306 31.6364 8.25963 32.181C8.8362 32.7255 9.55318 33.0986 10.33 33.2582C11.1069 33.4178 11.9129 33.3577 12.6575 33.0846C13.4021 32.8115 14.0558 32.3362 14.5452 31.7122C15.0346 31.0881 15.3403 30.3399 15.4281 29.5517C15.5158 28.7635 15.382 27.9664 15.0418 27.25H23.177C22.7808 28.0851 22.6667 29.0262 22.8517 29.9318C23.0366 30.8374 23.5107 31.6584 24.2026 32.2712C24.8945 32.8841 25.7667 33.2556 26.688 33.3299C27.6093 33.4043 28.5298 33.1773 29.3109 32.6833C30.0921 32.1893 30.6917 31.4549 31.0194 30.5907C31.3472 29.7265 31.3853 28.7792 31.1282 27.8914C30.8711 27.0036 30.3325 26.2234 29.5937 25.6681C28.8548 25.1128 27.9555 24.8126 27.0312 24.8125H10.6543L9.98398 21.1562H27.6559C28.5116 21.1558 29.3401 20.8553 29.9971 20.3069C30.6541 19.7585 31.0978 18.997 31.2512 18.1551ZM13.0156 29.0781C13.0156 29.4397 12.9084 29.7931 12.7075 30.0938C12.5067 30.3944 12.2211 30.6287 11.8871 30.7671C11.553 30.9055 11.1855 30.9417 10.8308 30.8711C10.4762 30.8006 10.1505 30.6265 9.89482 30.3708C9.63915 30.1151 9.46504 29.7894 9.3945 29.4348C9.32396 29.0802 9.36017 28.7126 9.49853 28.3785C9.6369 28.0445 9.87121 27.759 10.1718 27.5581C10.4725 27.3572 10.8259 27.25 11.1875 27.25C11.6723 27.25 12.1373 27.4426 12.4802 27.7854C12.823 28.1283 13.0156 28.5933 13.0156 29.0781ZM28.8594 29.0781C28.8594 29.4397 28.7522 29.7931 28.5513 30.0938C28.3504 30.3944 28.0649 30.6287 27.7308 30.7671C27.3968 30.9055 27.0292 30.9417 26.6746 30.8711C26.32 30.8006 25.9942 30.6265 25.7386 30.3708C25.4829 30.1151 25.3088 29.7894 25.2383 29.4348C25.1677 29.0802 25.2039 28.7126 25.3423 28.3785C25.4806 28.0445 25.715 27.759 26.0156 27.5581C26.3162 27.3572 26.6697 27.25 27.0312 27.25C27.5161 27.25 27.9811 27.4426 28.3239 27.7854C28.6668 28.1283 28.8594 28.5933 28.8594 29.0781ZM7.775 8.96875H30.4437L28.8594 17.7133C28.8092 17.9957 28.661 18.2514 28.4408 18.4353C28.2207 18.6192 27.9427 18.7196 27.6559 18.7188H9.54219L7.775 8.96875Z" fill="#585858"/>
</svg>
