<svg width="87" height="87" viewBox="0 0 87 87" fill="none" xmlns="http://www.w3.org/2000/svg">
<path d="M65 35.4467V30.3333H73.6667V34.7967C72.9733 34.6667 72.2367 34.6667 71.5 34.6667C69.3333 34.6667 67.1667 34.97 65 35.4467ZM52 36.8333C52 35.62 51.0467 34.6667 49.8333 34.6667H28.1667C26.9533 34.6667 26 35.62 26 36.8333V43.3333H51.22L52 42.5533V36.8333ZM13 69.3333V30.3333H4.33333V78H47.7967C46.1067 75.3567 44.85 72.4533 44.1133 69.3333H13ZM78 26H0V0H78V26ZM69.3333 8.66667H8.66667V17.3333H69.3333V8.66667ZM69.3333 45.5V39L59.5833 48.75L69.3333 58.5V52C72.2065 52 74.962 53.1414 76.9937 55.173C79.0253 57.2047 80.1667 59.9602 80.1667 62.8333C80.1667 64.5667 79.7767 66.2133 79.04 67.6867L83.7633 72.41C85.5833 69.68 86.6667 66.3867 86.6667 62.8333C86.6667 53.2567 78.91 45.5 69.3333 45.5ZM69.3333 73.6667C66.4602 73.6667 63.7047 72.5253 61.673 70.4937C59.6414 68.462 58.5 65.7065 58.5 62.8333C58.5 61.1 58.89 59.4533 59.6267 57.98L54.9033 53.2567C53.0833 55.9867 52 59.28 52 62.8333C52 72.41 59.7567 80.1667 69.3333 80.1667V86.6667L79.0833 76.9167L69.3333 67.1667V73.6667Z" fill="#585858"/>
</svg>
