<svg width="33" height="31" viewBox="0 0 33 31" fill="none" xmlns="http://www.w3.org/2000/svg">
<path d="M16.6625 26.1437L16.5 26.3062L16.3213 26.1437C8.6025 19.14 3.5 14.5087 3.5 9.8125C3.5 6.5625 5.9375 4.125 9.1875 4.125C11.69 4.125 14.1275 5.75 14.9887 7.96H18.0112C18.8725 5.75 21.31 4.125 23.8125 4.125C27.0625 4.125 29.5 6.5625 29.5 9.8125C29.5 14.5087 24.3975 19.14 16.6625 26.1437ZM23.8125 0.875C20.985 0.875 18.2712 2.19125 16.5 4.255C14.7288 2.19125 12.015 0.875 9.1875 0.875C4.1825 0.875 0.25 4.79125 0.25 9.8125C0.25 15.9388 5.775 20.96 14.1438 28.5488L16.5 30.6938L18.8562 28.5488C27.225 20.96 32.75 15.9388 32.75 9.8125C32.75 4.79125 28.8175 0.875 23.8125 0.875Z" fill="#AA2626"/>
</svg>
