<svg width="80" height="80" viewBox="0 0 80 80" fill="none" xmlns="http://www.w3.org/2000/svg">
<path d="M0 15C0 11.0218 1.58035 7.20644 4.3934 4.3934C7.20645 1.58035 11.0218 0 15 0H55C58.9783 0 62.7936 1.58035 65.6066 4.3934C68.4197 7.20644 70 11.0218 70 15V28.12C69.436 27.2958 68.7001 26.6035 67.843 26.0908C66.986 25.5781 66.028 25.2571 65.035 25.15H65V20H5V55C5 57.6522 6.05357 60.1957 7.92893 62.0711C9.8043 63.9464 12.3478 65 15 65H27.46C26.3607 66.4822 25.6041 68.1899 25.245 70H15C11.0218 70 7.20645 68.4196 4.3934 65.6066C1.58035 62.7935 0 58.9782 0 55V15ZM15 5C12.3478 5 9.8043 6.05357 7.92893 7.92893C6.05357 9.80429 5 12.3478 5 15H65C65 12.3478 63.9464 9.80429 62.0711 7.92893C60.1957 6.05357 57.6522 5 55 5H15ZM66.21 31.805C66.1546 31.3665 65.9508 30.9602 65.6324 30.6536C65.314 30.3471 64.9003 30.1588 64.46 30.12C61.4885 29.7718 58.4773 30.1872 55.7111 31.327C52.9449 32.4669 50.5151 34.2935 48.6516 36.634C46.7881 38.9746 45.5523 41.7518 45.0612 44.7031C44.5701 47.6543 44.8399 50.6821 45.845 53.5L32.21 67.13C30.8528 68.555 30.1066 70.4542 30.1306 72.4219C30.1546 74.3897 30.9469 76.2701 32.3384 77.6616C33.7299 79.0531 35.6103 79.8454 37.5781 79.8694C39.5458 79.8934 41.445 79.1472 42.87 77.79L56.5 64.16C59.3184 65.1654 62.3467 65.4352 65.2984 64.9439C68.2501 64.4526 71.0277 63.2163 73.3684 61.3522C75.7091 59.488 77.5356 57.0575 78.675 54.2906C79.8144 51.5237 80.2292 48.5119 79.88 45.54C79.67 43.71 77.48 43.185 76.17 44.49L71.295 49.365C69.87 50.7222 67.9708 51.4684 66.0031 51.4444C64.0353 51.4204 62.1549 50.6281 60.7634 49.2366C59.3719 47.8451 58.5796 45.9647 58.5556 43.9969C58.5316 42.0292 59.2778 40.13 60.635 38.705L65.51 33.83C65.7728 33.5677 65.9724 33.2491 66.0936 32.8983C66.2149 32.5474 66.2547 32.1735 66.21 31.805Z" fill="#585858"/>
</svg>
