<svg width="71" height="71" viewBox="0 0 71 71" fill="none" xmlns="http://www.w3.org/2000/svg">
<path fill-rule="evenodd" clip-rule="evenodd" d="M35.5 71C15.8939 71 0 55.1061 0 35.5C0 15.8939 15.8939 0 35.5 0C55.1061 0 71 15.8939 71 35.5C71 55.1061 55.1061 71 35.5 71ZM37.035 26.6414C33.8556 27.9638 27.5011 30.701 17.9717 34.8528C16.4243 35.4681 15.6136 36.0701 15.5399 36.6588C15.4151 37.6536 16.6609 38.0453 18.3574 38.5788C18.5881 38.6513 18.8272 38.7265 19.0723 38.8062C20.7414 39.3487 22.9865 39.9834 24.1537 40.0086C25.2124 40.0315 26.394 39.595 27.6986 38.6992C36.6023 32.689 41.1984 29.6511 41.4869 29.5856C41.6905 29.5394 41.9726 29.4813 42.1637 29.6512C42.3549 29.8211 42.3361 30.1429 42.3158 30.2292C42.1924 30.7553 37.3023 35.3016 34.7716 37.6544C33.9827 38.3878 33.4231 38.9081 33.3087 39.0269C33.0524 39.2931 32.7912 39.5449 32.5402 39.7868C30.9896 41.2816 29.8269 42.4025 32.6046 44.233C33.9395 45.1127 35.0076 45.8401 36.0733 46.5658C37.237 47.3583 38.3978 48.1488 39.8996 49.1333C40.2823 49.3841 40.6477 49.6446 41.0036 49.8984C42.358 50.8639 43.5748 51.7313 45.078 51.593C45.9515 51.5126 46.8538 50.6913 47.312 48.2417C48.3949 42.4524 50.5235 29.909 51.0155 24.7401C51.0586 24.2872 51.0043 23.7077 50.9608 23.4532C50.9173 23.1988 50.8263 22.8363 50.4956 22.568C50.1039 22.2502 49.4993 22.1832 49.2289 22.1877C47.9994 22.2096 46.1131 22.8655 37.035 26.6414Z" fill="#585858"/>
</svg>
