<svg width="90" height="78" viewBox="0 0 90 78" fill="none" xmlns="http://www.w3.org/2000/svg">
<path d="M52.515 32.4165C52.1585 32.4141 51.8155 32.5528 51.5609 32.8023C51.3063 33.0519 51.1607 33.392 51.156 33.7485V43.7025C51.1607 44.0598 51.3069 44.4006 51.5625 44.6503C51.8181 44.8999 52.1622 45.0381 52.5195 45.0345H82.503C82.8603 45.0381 83.2044 44.8999 83.46 44.6503C83.7156 44.4006 83.8617 44.0598 83.8665 43.7025V33.7485C83.8617 33.3912 83.7156 33.0504 83.46 32.8007C83.2044 32.5511 82.8603 32.4129 82.503 32.4165H52.5195H52.515ZM70.902 0.7545C75.051 0.9525 78.0345 1.7715 79.9245 3.5085C81.792 5.2275 82.7505 7.716 82.9395 11.01V20.4465C82.93 21.2501 82.6019 22.0171 82.0274 22.5791C81.4528 23.141 80.6786 23.4519 79.875 23.4435C79.4767 23.4483 79.0814 23.3745 78.7115 23.2265C78.3417 23.0784 78.0047 22.859 77.7197 22.5807C77.4348 22.3024 77.2074 21.9707 77.0506 21.6045C76.8938 21.2383 76.8107 20.8448 76.806 20.4465L76.8105 11.181C76.7115 9.471 76.302 8.409 75.717 7.869C75.15 7.347 73.422 6.879 70.7535 6.744H11.9115C9.495 6.834 7.9245 7.293 7.164 7.9455C6.579 8.445 6.138 9.822 6.1335 12.2025L6.12 65.1675C6.345 67.4805 6.8535 69.024 7.506 69.7935C8.001 70.3785 9.5355 70.9635 11.7945 71.2515H70.8165C73.5795 71.3055 75.2085 70.8915 75.7575 70.338C76.365 69.7215 76.806 68.1015 76.806 65.451V56.2485C76.806 54.597 78.1785 53.2515 79.875 53.2515C81.567 53.2515 82.9395 54.597 82.9395 56.2485V65.451C82.9395 69.501 82.1115 72.5295 80.172 74.496C78.174 76.521 74.997 77.331 70.7535 77.241L11.43 77.2275C7.3935 76.7595 4.5 75.6525 2.7765 73.614C1.215 71.769 0.3465 69.1365 0 65.4555V12.198C0.009 8.256 0.954 5.2905 3.123 3.4365C5.112 1.7265 7.983 0.894 11.7945 0.75H70.902V0.7545ZM82.503 26.4225C86.643 26.4225 90 29.703 90 33.7485V43.7025C90 47.748 86.643 51.0285 82.503 51.0285H52.5195C48.3795 51.0285 45.0225 47.7435 45.0225 43.7025V33.7485C45.0225 29.703 48.3795 26.4225 52.5195 26.4225H82.503ZM60.0165 35.1525C57.9465 35.1525 56.268 36.7725 56.268 38.766C56.268 40.764 57.9465 42.3795 60.0165 42.3795C62.0865 42.3795 63.765 40.7595 63.765 38.766C63.765 36.768 62.0865 35.148 60.0165 35.148V35.1525Z" fill="#585858"/>
</svg>
