<svg width="71" height="71" viewBox="0 0 71 71" fill="none" xmlns="http://www.w3.org/2000/svg">
<path d="M41.2688 35.5L31.95 30.175V40.825L41.2688 35.5Z" fill="#585858"/>
<path fill-rule="evenodd" clip-rule="evenodd" d="M0 35.5C0 15.8939 15.8939 0 35.5 0C55.1061 0 71 15.8939 71 35.5C71 55.1061 55.1061 71 35.5 71C15.8939 71 0 55.1061 0 35.5ZM49.2563 23.7406C50.8094 24.1844 51.9188 25.2938 52.3625 26.8469C53.25 29.7313 53.25 35.5 53.25 35.5C53.25 35.5 53.25 41.2688 52.5844 44.1531C52.1407 45.7063 51.0312 46.8156 49.4781 47.2594C46.5937 47.925 35.5 47.925 35.5 47.925C35.5 47.925 24.1844 47.925 21.5219 47.2594C19.9687 46.8156 18.8594 45.7063 18.4156 44.1531C17.75 41.2688 17.75 35.5 17.75 35.5C17.75 35.5 17.75 29.7313 18.1937 26.8469C18.6375 25.2938 19.7469 24.1844 21.3 23.7406C24.1844 23.075 35.2781 23.075 35.2781 23.075C35.2781 23.075 46.5938 23.075 49.2563 23.7406Z" fill="#585858"/>
</svg>
